<?xml version="1.0" encoding="UTF-8" standalone="no"?>
<!-- Created with Inkscape (http://www.inkscape.org/) -->

<svg
   xmlns:dc="http://purl.org/dc/elements/1.1/"
   xmlns:cc="http://creativecommons.org/ns#"
   xmlns:rdf="http://www.w3.org/1999/02/22-rdf-syntax-ns#"
   xmlns:svg="http://www.w3.org/2000/svg"
   xmlns="http://www.w3.org/2000/svg"
   xmlns:sodipodi="http://sodipodi.sourceforge.net/DTD/sodipodi-0.dtd"
   xmlns:inkscape="http://www.inkscape.org/namespaces/inkscape"
   version="1.1"
   id="svg831"
   xml:space="preserve"
   width="2349.2617"
   height="399.99985"
   viewBox="0 0 2349.2617 399.99985"
   sodipodi:docname="Logo_Team Feedback.svg"
   inkscape:version="0.92.4 (5da689c313, 2019-01-14)"><metadata
     id="metadata837"><rdf:RDF><cc:Work
         rdf:about=""><dc:format>image/svg+xml</dc:format><dc:type
           rdf:resource="http://purl.org/dc/dcmitype/StillImage" /><dc:title></dc:title></cc:Work></rdf:RDF></metadata><defs
     id="defs835"><clipPath
       clipPathUnits="userSpaceOnUse"
       id="clipPath847"><path
         d="M 0,500 H 500 V 0 H 0 Z"
         id="path845"
         inkscape:connector-curvature="0" /></clipPath></defs><sodipodi:namedview
     pagecolor="#ffffff"
     bordercolor="#666666"
     borderopacity="1"
     objecttolerance="10"
     gridtolerance="10"
     guidetolerance="10"
     inkscape:pageopacity="0"
     inkscape:pageshadow="2"
     inkscape:window-width="1920"
     inkscape:window-height="1017"
     id="namedview833"
     showgrid="false"
     fit-margin-top="0"
     fit-margin-left="0"
     fit-margin-right="0"
     fit-margin-bottom="0"
     inkscape:zoom="0.17699999"
     inkscape:cx="5509.207"
     inkscape:cy="367.7565"
     inkscape:window-x="-8"
     inkscape:window-y="-8"
     inkscape:window-maximized="1"
     inkscape:current-layer="g1624" /><g
     id="g839"
     inkscape:groupmode="layer"
     inkscape:label="Logo_Team Feedback"
     transform="matrix(1.3333333,0,0,-1.3333333,-65.537118,530.50807)"><flowRoot
       xml:space="preserve"
       id="flowRoot1444"
       style="font-style:normal;font-weight:normal;font-size:40px;line-height:1.25;font-family:sans-serif;letter-spacing:0px;word-spacing:0px;fill:#000000;fill-opacity:1;stroke:none"><flowRegion
         id="flowRegion1446"><rect
           id="rect1448"
           width="519.77405"
           height="364.4068"
           x="570.62146"
           y="175.14125" /></flowRegion><flowPara
         id="flowPara1450" /></flowRoot><g
       aria-label="Team feedback"
       transform="matrix(1.0501115,0,0,-1.0501115,-149.67842,567.75479)"
       style="font-style:normal;font-weight:normal;font-size:40px;line-height:1.25;font-family:sans-serif;letter-spacing:0px;word-spacing:0px;fill:#000000;fill-opacity:1;stroke:none"
       id="flowRoot1452"><g
         id="g1594"><g
           id="g1624"><g
             id="g841"
             transform="matrix(0.95227983,0,0,-0.95227983,142.53574,540.66143)"><g
               id="g843"
               clip-path="url(#clipPath847)"><g
                 id="g1510"
                 transform="translate(-50.84746,-2.1186442)"><g
                   transform="translate(196.603,284.8423)"
                   id="g853"><path
                     inkscape:connector-curvature="0"
                     id="path855"
                     style="fill:#ed2127;fill-opacity:1;fill-rule:nonzero;stroke:none"
                     d="m 0,0 -30.169,-30.17 -45.014,45.014 c -8.331,8.331 -8.331,21.838 0,30.169 v 0 c 8.331,8.331 21.839,8.331 30.17,0 z" /></g><g
                   transform="translate(121.6323,271.6323)"
                   id="g857"><path
                     inkscape:connector-curvature="0"
                     id="path859"
                     style="fill:#ed2127;fill-opacity:1;fill-rule:nonzero;stroke:none"
                     d="m 0,0 c 11.947,0 21.632,-9.685 21.632,-21.632 0,-11.948 -9.685,-21.632 -21.632,-21.632 -11.947,0 -21.632,9.684 -21.632,21.632 C -21.632,-9.685 -11.947,0 0,0" /></g><g
                   transform="translate(218.4663,262.9795)"
                   id="g861"><path
                     inkscape:connector-curvature="0"
                     id="path863"
                     style="fill:#f15c28;fill-opacity:1;fill-rule:nonzero;stroke:none"
                     d="m 0,0 -16.264,16.264 -78.929,-78.929 c -8.332,-8.331 -8.332,-21.839 0,-30.17 8.331,-8.331 21.838,-8.331 30.169,0 L 0,-27.812 C 7.68,-20.132 7.68,-7.68 0,0" /></g><g
                   transform="translate(262.9795,218.4658)"
                   id="g865"><path
                     inkscape:connector-curvature="0"
                     id="path867"
                     style="fill:#cbdc3d;fill-opacity:1;fill-rule:nonzero;stroke:none"
                     d="m 0,0 16.264,-16.264 -78.93,-78.929 c -8.331,-8.331 -21.838,-8.331 -30.169,0 -8.331,8.331 -8.331,21.839 0,30.17 L -27.812,0 C -20.131,7.68 -7.68,7.68 0,0" /></g><g
                   transform="translate(271.6323,121.6318)"
                   id="g869"><path
                     inkscape:connector-curvature="0"
                     id="path871"
                     style="fill:#97ca3c;fill-opacity:1;fill-rule:nonzero;stroke:none"
                     d="m 0,0 c 0,11.947 -9.685,21.633 -21.632,21.633 -11.948,0 -21.633,-9.686 -21.633,-21.633 0,-11.947 9.685,-21.632 21.633,-21.632 C -9.685,-21.632 0,-11.947 0,0" /></g><g
                   transform="translate(284.8423,196.6035)"
                   id="g873"><path
                     inkscape:connector-curvature="0"
                     id="path875"
                     style="fill:#97ca3c;fill-opacity:1;fill-rule:nonzero;stroke:none"
                     d="m 0,0 -30.17,-30.17 45.014,-45.014 c 8.331,-8.331 21.838,-8.331 30.169,0 8.331,8.331 8.331,21.839 0,30.17 z" /></g><g
                   transform="translate(303.397,215.1582)"
                   id="g877"><path
                     inkscape:connector-curvature="0"
                     id="path879"
                     style="fill:#f68c2b;fill-opacity:1;fill-rule:nonzero;stroke:none"
                     d="m 0,0 30.169,30.169 45.014,-45.013 c 8.331,-8.331 8.331,-21.839 0,-30.17 v 0 c -8.331,-8.331 -21.839,-8.331 -30.17,0 z" /></g><g
                   transform="translate(378.3677,228.3682)"
                   id="g881"><path
                     inkscape:connector-curvature="0"
                     id="path883"
                     style="fill:#f68c2b;fill-opacity:1;fill-rule:nonzero;stroke:none"
                     d="m 0,0 c -11.947,0 -21.632,9.685 -21.632,21.632 0,11.947 9.685,21.632 21.632,21.632 11.947,0 21.632,-9.685 21.632,-21.632 C 21.632,9.685 11.947,0 0,0" /></g><g
                   transform="translate(281.5337,237.0205)"
                   id="g885"><path
                     inkscape:connector-curvature="0"
                     id="path887"
                     style="fill:#fdb82b;fill-opacity:1;fill-rule:nonzero;stroke:none"
                     d="m 0,0 16.264,-16.264 78.929,78.93 c 8.332,8.331 8.332,21.838 0,30.169 -8.331,8.331 -21.838,8.331 -30.169,0 L 0,27.812 C -7.68,20.131 -7.68,7.68 0,0" /></g><g
                   transform="translate(284.8423,303.397)"
                   id="g889"><path
                     inkscape:connector-curvature="0"
                     id="path891"
                     style="fill:#46bbeb;fill-opacity:1;fill-rule:nonzero;stroke:none"
                     d="m 0,0 -30.17,30.169 45.014,45.014 c 8.331,8.331 21.838,8.331 30.169,0 v 0 c 8.331,-8.331 8.331,-21.839 0,-30.17 z" /></g><g
                   transform="translate(271.6323,378.3677)"
                   id="g893"><path
                     inkscape:connector-curvature="0"
                     id="path895"
                     style="fill:#46bbeb;fill-opacity:1;fill-rule:nonzero;stroke:none"
                     d="m 0,0 c 0,-11.947 -9.685,-21.632 -21.632,-21.632 -11.948,0 -21.633,9.685 -21.633,21.632 0,11.947 9.685,21.632 21.633,21.632 C -9.685,21.632 0,11.947 0,0" /></g><g
                   transform="translate(262.9795,281.5337)"
                   id="g897"><path
                     inkscape:connector-curvature="0"
                     id="path899"
                     style="fill:#59caec;fill-opacity:1;fill-rule:nonzero;stroke:none"
                     d="m 0,0 16.264,16.264 -78.93,78.929 c -8.331,8.332 -21.838,8.332 -30.169,0 -8.331,-8.331 -8.331,-21.838 0,-30.169 L -27.812,0 C -20.131,-7.68 -7.68,-7.68 0,0" /></g></g></g></g><path
             style="font-style:normal;font-variant:normal;font-weight:bold;font-stretch:normal;font-size:192px;font-family:Helvetica;-inkscape-font-specification:'Helvetica Bold';letter-spacing:-3px;fill:#232324;fill-opacity:1;stroke-width:0.97991806"
             d="m 1121.0631,234.46807 c -14.515,0 -23.6712,3.00196 -27.4684,9.00396 -3.6135,4.04216 -5.4212,11.42228 -5.4212,22.14013 v 6.43003 h -14.3308 v 18.46582 h 14.6069 v 80.75128 h 26.0906 v -80.75128 h 17.1795 v -18.46582 h -17.1795 v -8.45173 c 0,-1.95982 0.6426,-3.7359 1.9287,-5.32828 1.3473,-1.65361 3.7358,-2.41892 7.1654,-2.29643 3.4911,0.0613 5.9717,0.18397 7.4416,0.36769 v -21.31313 c -2.3273,-0.18377 -4.1642,-0.30649 -5.5114,-0.36771 -1.3474,-0.12248 -2.8477,-0.18453 -4.5014,-0.18453 z m -561.30963,1.37787 v 23.97728 h 40.69754 V 371.25929 H 628.9296 V 259.82322 h 40.51302 v -23.97728 z m 852.43663,0.18453 v 47.7714 c -2.9398,-4.71586 -6.7677,-8.39074 -11.4836,-11.02427 -4.7158,-2.69477 -10.1047,-4.04201 -16.168,-4.04201 -13.1676,0 -23.7028,4.8994 -31.6034,14.69858 -7.8393,9.79917 -11.7582,23.24252 -11.7582,40.32984 0,14.82126 3.9809,26.97805 11.9428,36.47101 8.0231,9.43171 17.8825,14.1477 29.5803,14.1477 7.1044,0 13.0462,-1.34723 17.8234,-4.042 4.777,-2.69478 9.0324,-7.01363 12.7684,-12.95438 v 13.87295 H 1438.74 V 236.03047 Z m 46.5767,0 v 135.22882 h 25.6313 v -12.58666 c 3.4909,4.89958 6.737,8.33039 9.738,10.29022 5.022,3.30722 11.6672,4.96058 19.9352,4.96058 13.1677,0 23.4257,-5.1145 30.7751,-15.34239 7.3493,-10.2279 11.0242,-23.11967 11.0242,-38.67587 0,-15.00499 -3.7355,-27.25416 -11.2074,-36.74712 -7.4107,-9.49296 -17.7003,-14.23928 -30.868,-14.23928 -7.2881,0 -13.2907,1.53062 -18.0066,4.59287 -3.9809,2.4498 -7.624,6.00195 -10.9312,10.65657 v -48.13774 z m 316.2989,0.27476 v 134.95406 h 25.723 v -31.51043 l 10.841,-11.30039 23.9773,42.81082 h 31.602 l -36.3794,-61.36822 35.0015,-38.30817 h -32.4289 l -32.6135,37.6657 V 236.30523 Z M 706.55744,268.45948 c -14.02508,0 -25.44689,4.6236 -34.26615,13.87157 -8.75802,9.24798 -13.13755,22.53827 -13.13755,39.87056 0,18.49595 4.86906,31.84692 14.607,40.05373 9.73794,8.20681 20.97635,12.31055 33.71528,12.31055 15.43371,0 27.43744,-4.86906 36.01171,-14.60699 5.51204,-6.12448 8.60503,-12.15738 9.27872,-18.09813 h -26.73302 c -1.40863,2.93976 -3.03166,5.23707 -4.869,6.89069 -3.36847,3.06224 -7.74799,4.59288 -13.13754,4.59288 -5.08332,0 -9.43114,-1.25485 -13.04459,-3.76589 -5.94076,-4.04217 -9.09441,-11.08582 -9.46188,-21.12998 h 68.5323 c 0.12249,-8.63552 -0.1533,-15.25033 -0.82699,-19.84369 -1.16365,-7.83934 -3.70505,-14.72857 -7.62472,-20.66932 -4.34839,-6.73694 -9.86004,-11.66667 -16.53573,-14.79016 -6.6757,-3.12349 -14.17854,-4.68582 -22.50784,-4.68582 z m 476.97426,0 c -14.025,0 -25.4469,4.6236 -34.2662,13.87157 -8.7579,9.24798 -13.1361,22.53827 -13.1361,39.87056 0,18.49595 4.8676,31.84692 14.6056,40.05373 9.738,8.20681 20.9764,12.31055 33.7154,12.31055 15.4336,0 27.4387,-4.86906 36.013,-14.60699 5.512,-6.12448 8.605,-12.15738 9.2787,-18.09813 h -26.7344 c -1.4086,2.93976 -3.0315,5.23707 -4.869,6.89069 -3.3684,3.06224 -7.7466,4.59288 -13.1362,4.59288 -5.0832,0 -9.4324,-1.25485 -13.0459,-3.76589 -5.9407,-4.04217 -9.0944,-11.08582 -9.4619,-21.12998 h 68.5337 c 0.1225,-8.63552 -0.1533,-15.25033 -0.827,-19.84369 -1.1637,-7.83934 -3.7064,-14.72857 -7.6261,-20.66932 -4.3484,-6.73694 -9.8601,-11.66667 -16.5358,-14.79016 -6.6756,-3.12349 -14.1785,-4.68582 -22.5078,-4.68582 z m 101.7897,0 c -14.025,0 -25.4468,4.6236 -34.2662,13.87157 -8.758,9.24798 -13.1375,22.53827 -13.1375,39.87056 0,18.49595 4.869,31.84692 14.6071,40.05373 9.7378,8.20681 20.9763,12.31055 33.7152,12.31055 15.4337,0 27.4374,-4.86906 36.0117,-14.60699 5.512,-6.12448 8.605,-12.15738 9.2787,-18.09813 h -26.733 c -1.4086,2.93976 -3.0316,5.23707 -4.869,6.89069 -3.3685,3.06224 -7.748,4.59288 -13.1375,4.59288 -5.0834,0 -9.4312,-1.25485 -13.0447,-3.76589 -5.9406,-4.04217 -9.0943,-11.08582 -9.4618,-21.12998 h 68.5323 c 0.1225,-8.63552 -0.1532,-15.25033 -0.827,-19.84369 -1.1637,-7.83934 -3.7051,-14.72857 -7.6248,-20.66932 -4.3483,-6.73694 -9.86,-11.66667 -16.5357,-14.79016 -6.6757,-3.12349 -14.1784,-4.68582 -22.5078,-4.68582 z m -477.06725,0.27611 c -16.84234,0 -28.72334,4.4085 -35.64401,13.22777 -4.34838,5.63452 -6.79877,12.83123 -7.34998,21.58925 h 25.26357 c 0.61245,-3.85842 1.83832,-6.92106 3.67567,-9.18712 2.57228,-3.06225 6.95045,-4.59288 13.13618,-4.59288 5.51203,0 9.67646,0.79565 12.49373,2.38803 2.8785,1.53111 4.31812,4.3483 4.31812,8.45171 0,3.36847 -1.86847,5.84918 -5.60441,7.44156 -2.08233,0.91867 -5.5421,1.68398 -10.38046,2.29643 l -8.911,1.10312 c -10.1054,1.28614 -17.7613,3.42903 -22.96712,6.43003 -9.49295,5.51204 -14.23929,14.42415 -14.23929,26.73438 0,9.49295 2.93991,16.84137 8.81942,22.04718 5.94075,5.14457 13.4436,7.71767 22.50784,7.71767 7.10441,0 13.47375,-1.62301 19.10828,-4.869 4.71586,-2.75602 8.88028,-6.09444 12.49372,-10.01411 0.18375,2.26606 0.42919,4.28759 0.73542,6.06369 0.30622,1.77611 0.85643,3.67492 1.65261,5.69599 h 28.47994 v -3.85883 c -1.71484,-0.79619 -3.0014,-1.80696 -3.85883,-3.03185 -0.85743,-1.2249 -1.37866,-3.55255 -1.5624,-6.98227 -0.12248,-4.53211 -0.18316,-8.39041 -0.18316,-11.57515 v -45.93288 c -10e-6,-12.06524 -4.25681,-20.27271 -12.76985,-24.6211 -8.51303,-4.34839 -18.25115,-6.52162 -29.21399,-6.52162 z m 802.92095,0 c -16.8423,0 -28.7247,4.4085 -35.6453,13.22777 -4.3484,5.63452 -6.7974,12.83123 -7.3486,21.58925 h 25.2636 c 0.6124,-3.85842 1.8369,-6.92106 3.6743,-9.18712 2.5722,-3.06225 6.9518,-4.59288 13.1375,-4.59288 5.512,0 9.6765,0.79565 12.4937,2.38803 2.8785,1.53111 4.3168,4.3483 4.3168,8.45171 0,3.36847 -1.8672,5.84918 -5.603,7.44156 -2.0824,0.91867 -5.5435,1.68398 -10.3819,2.29643 l -8.9109,1.10312 c -10.1055,1.28614 -17.7601,3.42903 -22.9658,6.43003 -9.493,5.51204 -14.2407,14.42415 -14.2407,26.73438 0,9.49295 2.9399,16.84137 8.8195,22.04718 5.9407,5.14457 13.4435,7.71767 22.5077,7.71767 7.1044,0 13.4738,-1.62301 19.1083,-4.869 4.7159,-2.75602 8.8803,-6.09444 12.4938,-10.01411 0.1837,2.26606 0.4291,4.28759 0.7354,6.06369 0.3062,1.77611 0.8577,3.67492 1.654,5.69599 h 28.4786 v -3.85883 c -1.7149,-0.79619 -3.0015,-1.80696 -3.8589,-3.03185 -0.8574,-1.2249 -1.3772,-3.55255 -1.561,-6.98227 -0.1226,-4.53211 -0.1846,-8.39041 -0.1846,-11.57515 v -45.93288 c 0,-12.06524 -4.2554,-20.27271 -12.7685,-24.6211 -8.513,-4.34839 -18.2511,-6.52162 -29.214,-6.52162 z m 103.9933,0 c -14.7601,0 -26.335,4.77667 -34.7255,14.33087 -8.3906,9.5542 -12.5867,22.9355 -12.5867,40.14531 0,15.24998 3.7976,27.65222 11.392,37.20642 7.5943,9.5542 19.445,14.33223 35.5524,14.33223 16.1074,0 28.2642,-5.72675 36.471,-17.17955 5.1446,-7.1044 8.0239,-14.63758 8.6363,-22.59941 h -26.7331 c -0.5512,5.26705 -2.1135,9.55419 -4.6857,12.86142 -2.5724,3.30722 -6.9202,4.96059 -13.0446,4.96059 -8.6355,0 -14.5154,-4.16442 -17.6389,-12.49373 -1.7149,-4.47087 -2.5725,-10.38104 -2.5725,-17.73042 0,-7.71686 0.8576,-13.90281 2.5725,-18.55742 3.2459,-8.75802 9.2789,-13.13754 18.0982,-13.13754 6.1857,0 10.7486,2.02153 13.6883,6.06369 2.0212,3.001 3.276,6.36976 3.7659,10.1057 h 26.826 c -1.4698,-14.27006 -6.2176,-24.22192 -14.2407,-29.85644 -7.9618,-5.63454 -18.2199,-8.45172 -30.7749,-8.45172 z m -790.6092,0.18318 c -8.0843,0 -14.66879,1.95947 -19.75207,5.87915 -2.87856,2.20481 -5.94117,5.91004 -9.18715,11.11586 v -14.607 h -25.44672 v 99.95251 h 26.54984 v -60.26512 c 0,-5.45079 0.70463,-9.55454 2.11326,-12.31056 2.57229,-4.83834 7.59306,-7.25702 15.06492,-7.25702 6.43073,0 10.74953,2.41868 12.9544,7.25702 1.2249,2.69478 1.83715,7.01226 1.83715,12.95302 v 59.62266 h 26.36532 v -59.62266 c 0,-4.47088 0.70463,-8.29883 2.11326,-11.48357 2.75599,-6.002 7.7478,-9.00258 14.9747,-9.00258 6.24694,0 10.53412,2.32765 12.86138,6.98226 1.22492,2.4498 1.83712,5.57311 1.83712,9.3703 v 63.75625 h 26.82449 l 0.1845,-63.1138 c 0,-6.49196 -0.3061,-11.42169 -0.9186,-14.79016 -0.9799,-5.08333 -2.8786,-9.37047 -5.6959,-12.86142 -3.4909,-4.28715 -7.37949,-7.28773 -11.66659,-9.00259 -4.2871,-1.71486 -8.6363,-2.57255 -13.04597,-2.57255 -6.61444,0 -12.6156,1.37756 -18.0052,4.13358 -5.08328,2.75602 -9.34001,7.07487 -12.76985,12.95437 -1.95977,-4.89958 -4.83902,-8.9123 -8.63621,-12.03579 -4.71585,-3.36847 -10.90044,-5.05216 -18.55608,-5.05216 z m -218.00176,21.12996 c 5.57329,0 10.22724,1.80642 13.96317,5.41987 3.79718,3.5522 5.9111,8.78807 6.33982,15.70874 h -40.69755 c 0.85743,-6.49195 2.93963,-11.6368 6.24686,-15.43399 3.36846,-3.79718 8.08446,-5.69462 14.1477,-5.69462 z m 476.97426,0 c 5.5733,0 10.2287,1.80642 13.9646,5.41987 3.7971,3.5522 5.9096,8.78807 6.3385,15.70874 h -40.6976 c 0.8574,-6.49195 2.941,-11.6368 6.2482,-15.43399 3.3685,-3.79718 8.0831,-5.69462 14.1463,-5.69462 z m 101.7897,0 c 5.5733,0 10.2272,1.80642 13.9632,5.41987 3.7971,3.5522 5.911,8.78807 6.3398,15.70874 h -40.6975 c 0.8573,-6.49195 2.9395,-11.6368 6.2467,-15.43399 3.3686,-3.79718 8.0845,-5.69462 14.1478,-5.69462 z m 105.0963,1.56104 c 5.0221,0 9.4319,1.59267 13.2291,4.77741 6.1857,5.26706 9.2787,14.02475 9.2787,26.27372 0,8.75802 -1.9291,15.89269 -5.7876,21.40472 -3.8584,5.51205 -9.4941,8.26856 -16.9048,8.26856 -7.4105,0 -12.9526,-2.75651 -16.6273,-8.26856 -3.6135,-5.57328 -5.4199,-12.98373 -5.4199,-22.23171 0,-8.57428 1.7761,-15.73929 5.3284,-21.49631 3.6135,-5.81827 9.2477,-8.72783 16.9034,-8.72783 z m 115.936,0.18453 c 9.3704,0 15.8018,4.40851 19.2928,13.22776 1.8373,4.65462 2.7557,10.53443 2.7557,17.63884 0,8.88052 -1.8685,16.04689 -5.6044,21.49768 -3.736,5.45079 -8.9718,8.1756 -15.7088,8.1756 -7.7779,0 -13.5655,-2.81719 -17.3627,-8.45172 -3.7971,-5.63453 -5.6959,-12.73886 -5.6959,-21.31314 0,-7.28814 0.9183,-13.22865 2.7556,-17.82201 3.5523,-8.63552 10.0747,-12.95301 19.5677,-12.95301 z m -682.29786,30.77502 v 9.73799 c -0.18373,8.75802 -2.66445,14.7909 -7.44155,18.09814 -4.71586,3.30722 -9.89104,4.96057 -15.52557,4.96057 -3.55221,0 -6.58314,-0.98043 -9.09418,-2.94026 -2.44979,-2.02108 -3.67567,-5.26712 -3.67567,-9.73799 0,-5.02208 2.02154,-8.72732 6.0637,-11.11586 2.38855,-1.40863 6.33922,-2.60281 11.85127,-3.58272 l 5.87916,-1.10175 c 2.93975,-0.5512 5.23707,-1.13312 6.89068,-1.74557 1.71485,-0.67369 3.39855,-1.53139 5.05216,-2.57255 z m 802.91966,0 v 9.73799 c -0.1838,8.75802 -2.6645,14.7909 -7.4415,18.09814 -4.7159,3.30722 -9.891,4.96057 -15.5256,4.96057 -3.5523,0 -6.5831,-0.98043 -9.0942,-2.94026 -2.4498,-2.02108 -3.6743,-5.26712 -3.6743,-9.73799 0,-5.02208 2.0201,-8.72732 6.0623,-11.11586 2.3886,-1.40863 6.3392,-2.60281 11.8513,-3.58272 l 5.8792,-1.10175 c 2.9396,-0.5512 5.237,-1.13312 6.8907,-1.74557 1.7148,-0.67369 3.3984,-1.53139 5.0521,-2.57255 z"
             id="path1512"
             inkscape:connector-curvature="0" /></g></g></g></g></svg>