<?xml version="1.0" encoding="UTF-8" standalone="no"?>
<!-- Created with Inkscape (http://www.inkscape.org/) -->

<svg
   xmlns:dc="http://purl.org/dc/elements/1.1/"
   xmlns:cc="http://creativecommons.org/ns#"
   xmlns:rdf="http://www.w3.org/1999/02/22-rdf-syntax-ns#"
   xmlns:svg="http://www.w3.org/2000/svg"
   xmlns="http://www.w3.org/2000/svg"
   xmlns:sodipodi="http://sodipodi.sourceforge.net/DTD/sodipodi-0.dtd"
   xmlns:inkscape="http://www.inkscape.org/namespaces/inkscape"
   width="173.02039mm"
   height="26.455956mm"
   viewBox="0 0 173.02038 26.455956"
   version="1.1"
   id="svg8"
   inkscape:version="0.92.4 (5da689c313, 2019-01-14)"
   sodipodi:docname="team-feedback-logo-mobile.svg">
  <defs
     id="defs2">
    <clipPath
       id="clipPath847">
      <path
         id="path947"
         d="M 0,500 H 500 V 0 H 0 Z"
         inkscape:connector-curvature="0" />
    </clipPath>
  </defs>
  <sodipodi:namedview
     id="base"
     pagecolor="#ffffff"
     bordercolor="#666666"
     borderopacity="1.0"
     inkscape:pageopacity="0.0"
     inkscape:pageshadow="2"
     inkscape:zoom="1.4"
     inkscape:cx="236.00573"
     inkscape:cy="47.317201"
     inkscape:document-units="mm"
     inkscape:current-layer="layer1"
     showgrid="false"
     fit-margin-top="0"
     fit-margin-left="0"
     fit-margin-right="0"
     fit-margin-bottom="0"
     inkscape:window-width="1920"
     inkscape:window-height="1017"
     inkscape:window-x="-8"
     inkscape:window-y="-8"
     inkscape:window-maximized="1" />
  <metadata
     id="metadata5">
    <rdf:RDF>
      <cc:Work
         rdf:about="">
        <dc:format>image/svg+xml</dc:format>
        <dc:type
           rdf:resource="http://purl.org/dc/dcmitype/StillImage" />
        <dc:title></dc:title>
      </cc:Work>
    </rdf:RDF>
  </metadata>
  <g
     inkscape:label="Layer 1"
     inkscape:groupmode="layer"
     id="layer1"
     transform="translate(86.177388,-169.24524)">
    <flowRoot
       xml:space="preserve"
       id="flowRoot1057"
       style="font-style:normal;font-weight:normal;font-size:74.66666412px;line-height:1.25;font-family:sans-serif;letter-spacing:0px;word-spacing:0px;fill:#000000;fill-opacity:1;stroke:none"
       transform="scale(0.26458333)"><flowRegion
         id="flowRegion1059"
         style="font-size:74.66666412px"><rect
           id="rect1061"
           width="537.14288"
           height="77.85714"
           x="-215"
           y="468.94824"
           style="font-size:74.66666412px" /></flowRegion><flowPara
         id="flowPara1063"></flowPara></flowRoot>    <g
       id="g1104"
       transform="translate(4.7247024,7.5595238)">
      <g
         transform="matrix(0.08818629,0,0,-0.08818629,-95.236599,196.77346)"
         id="g1016">
        <flowRoot
           font-size="40px"
           letter-spacing="0px"
           word-spacing="0px"
           style="font-size:40px;line-height:1.25;font-family:sans-serif;letter-spacing:0px;word-spacing:0px;fill:#000000"
           xml:space="preserve"
           id="flowRoot958"><flowRegion
             id="flowRegion954"><rect
               x="570.62"
               y="175.14"
               width="519.77002"
               height="364.41"
               id="rect952" /></flowRegion><flowPara
             id="flowPara956" /></flowRoot>        <g
           transform="matrix(1.0501,0,0,-1.0501,-149.68,567.75)"
           aria-label="Team feedback"
           id="g1014">
          <g
             transform="matrix(0.95228,0,0,-0.95228,142.54,540.66)"
             id="g1012">
            <g
               clip-path="url(#clipPath847)"
               id="g1010">
              <g
                 transform="translate(-50.847,-2.1186)"
                 id="g1008">
                <g
                   transform="translate(196.6,284.84)"
                   id="g962">
                  <path
                     style="fill:#ed2127"
                     inkscape:connector-curvature="0"
                     d="m 0,0 -30.169,-30.17 -45.014,45.014 c -8.331,8.331 -8.331,21.838 0,30.169 8.331,8.331 21.839,8.331 30.17,0 z"
                     id="path960" />
                </g>
                <g
                   transform="translate(121.63,271.63)"
                   id="g966">
                  <path
                     style="fill:#ed2127"
                     inkscape:connector-curvature="0"
                     d="m 0,0 c 11.947,0 21.632,-9.685 21.632,-21.632 0,-11.948 -9.685,-21.632 -21.632,-21.632 -11.947,0 -21.632,9.684 -21.632,21.632 C -21.632,-9.685 -11.947,0 0,0"
                     id="path964" />
                </g>
                <g
                   transform="translate(218.47,262.98)"
                   id="g970">
                  <path
                     style="fill:#f15c28"
                     inkscape:connector-curvature="0"
                     d="m 0,0 -16.264,16.264 -78.929,-78.929 c -8.332,-8.331 -8.332,-21.839 0,-30.17 8.331,-8.331 21.838,-8.331 30.169,0 L 0,-27.812 C 7.68,-20.132 7.68,-7.68 0,0"
                     id="path968" />
                </g>
                <g
                   transform="translate(262.98,218.47)"
                   id="g974">
                  <path
                     style="fill:#cbdc3d"
                     inkscape:connector-curvature="0"
                     d="m 0,0 16.264,-16.264 -78.93,-78.929 c -8.331,-8.331 -21.838,-8.331 -30.169,0 -8.331,8.331 -8.331,21.839 0,30.17 L -27.812,0 C -20.131,7.68 -7.68,7.68 0,0"
                     id="path972" />
                </g>
                <g
                   transform="translate(271.63,121.63)"
                   id="g978">
                  <path
                     style="fill:#97ca3c"
                     inkscape:connector-curvature="0"
                     d="m 0,0 c 0,11.947 -9.685,21.633 -21.632,21.633 -11.948,0 -21.633,-9.686 -21.633,-21.633 0,-11.947 9.685,-21.632 21.633,-21.632 C -9.685,-21.632 0,-11.947 0,0"
                     id="path976" />
                </g>
                <g
                   transform="translate(284.84,196.6)"
                   id="g982">
                  <path
                     style="fill:#97ca3c"
                     inkscape:connector-curvature="0"
                     d="m 0,0 -30.17,-30.17 45.014,-45.014 c 8.331,-8.331 21.838,-8.331 30.169,0 8.331,8.331 8.331,21.839 0,30.17 z"
                     id="path980" />
                </g>
                <g
                   transform="translate(303.4,215.16)"
                   id="g986">
                  <path
                     style="fill:#f68c2b"
                     inkscape:connector-curvature="0"
                     d="m 0,0 30.169,30.169 45.014,-45.013 c 8.331,-8.331 8.331,-21.839 0,-30.17 -8.331,-8.331 -21.839,-8.331 -30.17,0 z"
                     id="path984" />
                </g>
                <g
                   transform="translate(378.37,228.37)"
                   id="g990">
                  <path
                     style="fill:#f68c2b"
                     inkscape:connector-curvature="0"
                     d="m 0,0 c -11.947,0 -21.632,9.685 -21.632,21.632 0,11.947 9.685,21.632 21.632,21.632 11.947,0 21.632,-9.685 21.632,-21.632 C 21.632,9.685 11.947,0 0,0"
                     id="path988" />
                </g>
                <g
                   transform="translate(281.53,237.02)"
                   id="g994">
                  <path
                     style="fill:#fdb82b"
                     inkscape:connector-curvature="0"
                     d="m 0,0 16.264,-16.264 78.929,78.93 c 8.332,8.331 8.332,21.838 0,30.169 -8.331,8.331 -21.838,8.331 -30.169,0 L 0,27.812 C -7.68,20.131 -7.68,7.68 0,0"
                     id="path992" />
                </g>
                <g
                   transform="translate(284.84,303.4)"
                   id="g998">
                  <path
                     style="fill:#46bbeb"
                     inkscape:connector-curvature="0"
                     d="m 0,0 -30.17,30.169 45.014,45.014 c 8.331,8.331 21.838,8.331 30.169,0 8.331,-8.331 8.331,-21.839 0,-30.17 z"
                     id="path996" />
                </g>
                <g
                   transform="translate(271.63,378.37)"
                   id="g1002">
                  <path
                     style="fill:#46bbeb"
                     inkscape:connector-curvature="0"
                     d="m 0,0 c 0,-11.947 -9.685,-21.632 -21.632,-21.632 -11.948,0 -21.633,9.685 -21.633,21.632 0,11.947 9.685,21.632 21.633,21.632 C -9.685,21.632 0,11.947 0,0"
                     id="path1000" />
                </g>
                <g
                   transform="translate(262.98,281.53)"
                   id="g1006">
                  <path
                     style="fill:#59caec"
                     inkscape:connector-curvature="0"
                     d="m 0,0 16.264,16.264 -78.93,78.929 c -8.331,8.332 -21.838,8.332 -30.169,0 -8.331,-8.331 -8.331,-21.838 0,-30.169 L -27.812,0 C -20.131,-7.68 -7.68,-7.68 0,0"
                     id="path1004" />
                </g>
              </g>
            </g>
          </g>
        </g>
      </g>
      <text
         id="text1067"
         y="181.52827"
         x="-57.26339"
         style="font-style:normal;font-weight:normal;font-size:10.58333302px;line-height:1.25;font-family:sans-serif;letter-spacing:0px;word-spacing:0px;fill:#000000;fill-opacity:1;stroke:none;stroke-width:0.26458332"
         xml:space="preserve"><tspan
           style="font-style:normal;font-variant:normal;font-weight:bold;font-stretch:normal;font-size:19.40277863px;font-family:Heebo;-inkscape-font-specification:'Heebo Bold';stroke-width:0.26458332"
           y="181.52827"
           x="-57.26339"
           id="tspan1065"
           sodipodi:role="line">Team Feedback</tspan></text>
    </g>
  </g>
</svg>
